HIERARCHY
ROOT Hips
{
	OFFSET 0.00000 0.00000 0.00000
	CHANNELS 6 Xposition Yposition Zposition Zrotation Yrotation Xrotation 
	JOINT LHipJoint
	{
		OFFSET 0 0 0
		CHANNELS 3 Zrotation Yrotation Xrotation
		JOINT LeftUpLeg
		{
			OFFSET 1.29432 -1.88279 0.59910
			CHANNELS 3 Zrotation Yrotation Xrotation
			JOINT LeftLeg
			{
				OFFSET 2.63039 -7.22694 0.00000
				CHANNELS 3 Zrotation Yrotation Xrotation
				JOINT LeftFoot
				{
					OFFSET 2.70674 -7.43672 0.00000
					CHANNELS 3 Zrotation Yrotation Xrotation
					JOINT LeftToeBase
					{
						OFFSET 0.15066 -0.41394 2.09027
						CHANNELS 3 Zrotation Yrotation Xrotation
						End Site
						{
							OFFSET 0.00000 -0.00000 1.07518
						}
					}
				}
			}
		}
	}
	JOINT RHipJoint
	{
		OFFSET 0 0 0
		CHANNELS 3 Zrotation Yrotation Xrotation
		JOINT RightUpLeg
		{
			OFFSET -1.37068 -1.88279 0.59910
			CHANNELS 3 Zrotation Yrotation Xrotation
			JOINT RightLeg
			{
				OFFSET -2.57023 -7.06166 0.00000
				CHANNELS 3 Zrotation Yrotation Xrotation
				JOINT RightFoot
				{
					OFFSET -2.76461 -7.59570 0.00000
					CHANNELS 3 Zrotation Yrotation Xrotation
					JOINT RightToeBase
					{
						OFFSET -0.24175 -0.64785 2.19719
						CHANNELS 3 Zrotation Yrotation Xrotation
						End Site
						{
							OFFSET -0.00000 -0.00000 1.14803
						}
					}
				}
			}
		}
	}
	JOINT LowerBack
	{
		OFFSET 0 0 0
		CHANNELS 3 Zrotation Yrotation Xrotation
		JOINT Spine
		{
			OFFSET -0.03138 2.03983 -0.23106
			CHANNELS 3 Zrotation Yrotation Xrotation
			JOINT Spine1
			{
				OFFSET -0.00325 2.06238 -0.06878
				CHANNELS 3 Zrotation Yrotation Xrotation
				JOINT Neck
				{
					OFFSET 0 0 0
					CHANNELS 3 Zrotation Yrotation Xrotation
					JOINT Neck1
					{
						OFFSET -0.00002 1.75318 0.18090
						CHANNELS 3 Zrotation Yrotation Xrotation
						JOINT Head
						{
							OFFSET 0.08806 1.75856 -0.25387
							CHANNELS 3 Zrotation Yrotation Xrotation
							End Site
							{
								OFFSET 0.02554 1.78597 -0.10684
							}
						}
					}
				}
				JOINT LeftShoulder
				{
					OFFSET 0 0 0
					CHANNELS 3 Zrotation Yrotation Xrotation
					JOINT LeftArm
					{
						OFFSET 3.09657 1.33597 -0.04414
						CHANNELS 3 Zrotation Yrotation Xrotation
						JOINT LeftForeArm
						{
							OFFSET 5.34298 -0.00000 -0.00000
							CHANNELS 3 Zrotation Yrotation Xrotation
							JOINT LeftHand
							{
								OFFSET 3.67262 -0.00000 -0.00000
								CHANNELS 3 Zrotation Yrotation Xrotation
								JOINT LeftFingerBase
								{
									OFFSET 0 0 0
									CHANNELS 3 Zrotation Yrotation Xrotation
									JOINT LeftHandIndex1
									{
										OFFSET 0.59930 -0.00000 -0.00000
										CHANNELS 3 Zrotation Yrotation Xrotation
										End Site
										{
											OFFSET 0.48317 -0.00000 -0.00000
										}
									}
								}
								JOINT LThumb
								{
									OFFSET 0 0 0
									CHANNELS 3 Zrotation Yrotation Xrotation
									End Site
									{
										OFFSET 0.49055 -0.00000 0.49055
									}
								}
							}
						}
					}
				}
				JOINT RightShoulder
				{
					OFFSET 0 0 0
					CHANNELS 3 Zrotation Yrotation Xrotation
					JOINT RightArm
					{
						OFFSET -3.16460 1.32273 -0.23382
						CHANNELS 3 Zrotation Yrotation Xrotation
						JOINT RightForeArm
						{
							OFFSET -5.54967 -0.01834 0.03348
							CHANNELS 3 Zrotation Yrotation Xrotation
							JOINT RightHand
							{
								OFFSET -3.69401 -0.00000 0.00000
								CHANNELS 3 Zrotation Yrotation Xrotation
								JOINT RightFingerBase
								{
									OFFSET 0 0 0
									CHANNELS 3 Zrotation Yrotation Xrotation
									JOINT RightHandIndex1
									{
										OFFSET -0.63811 -0.00000 0.00000
										CHANNELS 3 Zrotation Yrotation Xrotation
										End Site
										{
											OFFSET -0.51446 -0.00000 0.00000
										}
									}
								}
								JOINT RThumb
								{
									OFFSET 0 0 0
									CHANNELS 3 Zrotation Yrotation Xrotation
									End Site
									{
										OFFSET -0.52232 -0.00000 0.52232
									}
								}
							}
						}
					}
				}
			}
		}
	}
}
MOTION
Frames: 13
Frame Time: .0083333
16.8762 13.5225 9.9291 46.4593 -82.5406 -64.4195 0.0000 0.0000 0.0000 1.4542 -17.2343 -38.1940 3.4090 11.3294 33.3991 1.8104 2.0017 24.8989 0.1945 -2.8402 -7.8342 0.0000 0.0000 0.0000 -12.1170 8.9698 -44.9410 -7.5616 -15.7871 50.9676 -0.3977 -16.8740 15.4494 -1.3802 7.4341 -21.0079 5.6109 3.1107 30.2400 -0.2895 3.7907 15.3477 -4.5636 1.6442 1.3291 -9.9679 -9.3577 -7.8529 22.3403 -11.5768 -8.4772 7.9589 -5.8699 0.9159 -0.0000 -0.0000 0.0000 -83.5482 -17.9659 63.3149 73.8337 -58.9891 -46.0471 -0.0000 -0.0000 25.6813 0.8944 32.9471 0.4864 -7.1250 0.0000 -0.0000 -35.5286 59.2180 -13.3782 -0.0000 -0.0000 0.0000 -56.3835 67.5531 -119.6055 -12.6797 20.8162 -2.3382 0.0000 -0.0000 -7.2316 -17.6789 -2.3908 0.7618 7.1250 -0.0000 -0.0000 7.1931 -32.4325 2.2286
16.8659 13.5673 9.9274 47.2525 -82.8307 -64.8420 0.0000 0.0000 0.0000 2.6042 -17.8152 -38.1459 3.4427 11.3793 33.5701 1.6499 4.5566 23.2451 0.0427 1.3342 3.6689 0.0000 0.0000 0.0000 -11.9486 9.4130 -45.0981 -7.5322 -15.7641 50.8595 -0.3903 -16.9749 15.4415 -1.4337 7.5707 -21.4177 6.1218 3.0721 30.4856 -0.3481 3.8668 15.3612 -4.9500 1.7140 1.3071 -9.7298 -9.5311 -7.5115 22.6079 -11.7560 -9.1932 8.0244 -6.0302 0.6916 0.0000 -0.0000 0.0000 -83.1589 -17.8093 63.8252 74.3964 -59.0597 -46.5295 -0.0000 -0.0000 25.1864 3.0757 32.4422 1.6511 -7.1250 0.0000 -0.0000 -32.9177 59.2995 -12.3165 0.0000 -0.0000 0.0000 -57.0663 67.0265 -120.6119 -12.7112 20.8625 -2.3494 0.0000 -0.0000 -6.9750 -17.5528 -2.7313 0.8635 7.1250 -0.0000 -0.0000 7.3273 -32.7832 2.2083
16.8327 13.5909 9.9326 47.2940 -83.0071 -64.4433 0.0000 0.0000 0.0000 3.1456 -17.9461 -38.3517 3.4494 11.3892 33.6040 1.5535 5.1677 22.4533 0.2460 3.1915 8.8124 0.0000 0.0000 0.0000 -12.0358 9.6829 -45.3402 -7.5395 -15.7699 50.8864 -0.3788 -16.8629 15.2851 -1.5257 7.7992 -22.1057 6.6321 2.8333 30.6105 -0.4207 3.6925 15.3476 -5.2812 1.6598 1.2749 -9.7929 -9.5273 -7.3957 22.6608 -11.7368 -9.3014 8.0622 -6.0327 0.6474 -0.0000 -0.0000 0.0000 -82.9200 -17.6130 63.2368 75.7437 -59.2179 -47.6861 -0.0000 -0.0000 27.7826 -1.7770 32.4183 -0.9529 -7.1250 0.0000 -0.0000 -37.5647 58.1948 -13.3357 -0.0000 -0.0000 0.0000 -58.0145 66.6837 -120.8458 -12.7987 20.9915 -2.3807 0.0000 -0.0000 -7.9793 -17.8019 -3.0278 0.9717 7.1250 -0.0000 -0.0000 7.1555 -33.0993 2.1008
16.7926 13.5801 9.9404 48.4161 -82.9124 -65.0577 0.0000 0.0000 0.0000 2.8518 -17.5502 -38.8821 3.4449 11.3826 33.5815 1.6145 4.1915 23.0365 0.1108 2.1463 5.9100 0.0000 0.0000 0.0000 -12.6159 9.9299 -45.7505 -7.5672 -15.7915 50.9885 -0.3656 -16.5591 15.0110 -1.6016 7.9817 -22.6586 6.4921 2.6449 30.9131 -0.3627 3.4392 15.2402 -5.0877 1.5045 0.9628 -10.1124 -9.3574 -7.8614 22.4142 -11.5546 -8.5472 8.0101 -5.8616 0.9096 0.0000 -0.0000 0.0000 -83.0266 -17.1834 62.9140 76.8601 -59.3374 -48.6458 -0.0000 -0.0000 28.0024 -1.0672 32.2872 -0.5701 -7.1250 0.0000 -0.0000 -36.7665 58.2460 -13.0453 0.0000 -0.0000 0.0000 -60.1272 66.6256 -122.5792 -12.9702 21.2436 -2.4425 0.0000 -0.0000 -8.7784 -18.2686 -3.3723 1.1125 7.1250 -0.0000 -0.0000 6.8115 -33.4740 1.9364
16.7528 13.5718 9.9380 51.5621 -82.6636 -67.7145 0.0000 0.0000 0.0000 2.1670 -16.9615 -39.3102 3.4202 11.3460 33.4558 1.6225 1.7349 23.5986 0.0145 -0.7781 -2.1384 0.0000 0.0000 0.0000 -13.5595 10.5084 -46.0486 -7.6153 -15.8288 51.1647 -0.3198 -16.0682 14.3473 -1.5589 7.8796 -22.3489 5.9646 2.7118 31.2493 -0.3547 3.3960 15.1852 -4.7845 1.4350 0.6946 -10.0216 -9.3398 -8.2149 22.0609 -11.5412 -8.3411 7.8629 -5.8242 0.9880 0.0000 -0.0000 0.0000 -83.0693 -16.8897 62.9654 77.4922 -59.4005 -49.1897 -0.0000 -0.0000 27.3377 1.8014 31.2421 0.9345 -7.1250 0.0000 -0.0000 -33.0528 58.0160 -11.3325 0.0000 -0.0000 0.0000 -62.2956 66.4914 -125.4846 -13.1519 21.5093 -2.5087 0.0000 -0.0000 -8.2736 -18.3650 -3.5613 1.1814 7.1250 -0.0000 -0.0000 6.7519 -33.6750 1.8862
16.7104 13.5864 9.9416 53.2153 -82.6034 -68.7996 0.0000 0.0000 0.0000 1.9997 -16.8306 -39.5971 3.3804 11.2867 33.2531 1.4971 0.4251 23.0161 0.0597 -1.5762 -4.3357 0.0000 0.0000 0.0000 -14.3407 11.1751 -46.2009 -7.6526 -15.8577 51.3017 -0.2581 -15.5873 13.5201 -1.3698 7.4071 -20.9273 6.0526 2.6922 31.1807 -0.4954 3.3818 15.2035 -4.9838 1.4442 0.7643 -9.6934 -9.4250 -8.1600 22.0481 -11.6365 -8.7354 7.8095 -5.9080 0.8590 0.0000 -0.0000 0.0000 -82.7141 -16.8009 63.1605 77.9465 -59.4438 -49.5808 -0.0000 -0.0000 27.1059 2.7778 31.4656 1.4508 -7.1250 0.0000 -0.0000 -32.3060 58.4161 -11.3577 0.0000 -0.0000 0.0000 -63.3381 66.0831 -126.8674 -13.2345 21.6298 -2.5391 0.0000 -0.0000 -7.9635 -18.6328 -3.4778 1.1718 7.1250 -0.0000 -0.0000 6.5260 -33.5969 1.8348
16.6763 13.5993 9.9553 52.6947 -82.8317 -67.5261 0.0000 0.0000 0.0000 2.4472 -16.9583 -40.1069 3.3449 11.2335 33.0715 1.3873 -0.2061 22.3561 0.0554 -1.5190 -4.1780 0.0000 0.0000 0.0000 -14.7950 11.7639 -46.5735 -7.6784 -15.8776 51.3960 -0.2015 -15.3677 12.8561 -1.1555 6.8250 -19.1978 6.6057 2.4397 30.9413 -0.5222 3.2100 15.1361 -5.2724 1.4006 0.8214 -10.1374 -9.4001 -8.1302 22.4816 -11.5767 -8.7213 8.0265 -5.8729 0.9155 0.0000 -0.0000 0.0000 -82.5250 -16.5738 63.0016 78.7223 -59.5139 -50.2492 -0.0000 -0.0000 27.8668 1.8597 32.3207 0.9946 -7.1250 0.0000 -0.0000 -33.9884 58.9238 -12.4641 0.0000 -0.0000 0.0000 -64.4370 65.6686 -127.2242 -13.2681 21.6788 -2.5515 0.0000 -0.0000 -8.7002 -19.0807 -3.7136 1.2834 7.1250 -0.0000 -0.0000 6.1838 -33.8603 1.6979
16.6475 13.6201 9.9524 53.5129 -82.9837 -67.7086 0.0000 0.0000 0.0000 2.6989 -16.8363 -40.4331 3.3088 11.1789 32.8858 1.2876 -1.3328 21.9618 0.1261 -2.2890 -6.3049 0.0000 0.0000 0.0000 -15.2949 12.5145 -46.8114 -7.7016 -15.8953 51.4806 -0.1412 -15.0451 12.0635 -0.9623 6.2462 -17.5004 6.7750 2.5381 31.0359 -0.4660 3.4082 14.9891 -5.3689 1.5043 0.6470 -10.1834 -9.4764 -7.9764 22.6398 -11.6795 -8.7474 8.0818 -5.9329 0.9163 0.0000 -0.0000 0.0000 -82.3459 -16.2966 63.1851 79.6029 -59.5876 -51.0083 -0.0000 -0.0000 29.1499 0.2999 32.3490 0.1605 -7.1250 0.0000 -0.0000 -35.5207 58.5983 -12.8342 0.0000 -0.0000 0.0000 -64.1451 65.2961 -126.6933 -13.3799 21.8414 -2.5929 0.0000 -0.0000 -8.9092 -18.9306 -3.8603 1.3228 7.1250 -0.0000 -0.0000 6.3204 -34.0088 1.7130
16.6075 13.6163 9.9754 55.7318 -82.7844 -69.2842 0.0000 0.0000 0.0000 2.6290 -17.0490 -40.8798 3.2935 11.1557 32.8067 1.2498 -1.6636 21.7815 0.1625 -2.5975 -7.1601 0.0000 0.0000 0.0000 -16.3079 12.8446 -47.1861 -7.7283 -15.9157 51.5781 -0.1349 -14.0923 11.4151 -0.7975 5.7000 -15.9164 6.2993 2.2066 31.2081 -0.4001 2.8705 14.9194 -4.8844 1.1862 0.3678 -10.9504 -9.2366 -8.3541 22.5167 -11.2948 -8.5688 8.1873 -5.6908 1.0045 0.0000 -0.0000 0.0000 -82.8977 -15.7885 61.7802 80.2822 -59.6401 -51.5943 -0.0000 -0.0000 30.1019 -0.4838 31.1819 -0.2505 -7.1250 0.0000 -0.0000 -35.1874 57.4756 -11.7140 0.0000 -0.0000 0.0000 -68.1327 65.5912 -130.3257 -13.5655 22.1102 -2.6624 0.0000 -0.0000 -8.4438 -18.6596 -3.8114 1.2859 7.1250 -0.0000 -0.0000 6.5368 -33.9474 1.7821
16.5696 13.6202 9.9744 57.2409 -82.5204 -70.1563 0.0000 0.0000 0.0000 2.6418 -17.2944 -41.3814 3.2791 11.1337 32.7322 1.2491 -1.4788 21.6990 0.1127 -2.1648 -5.9614 0.0000 0.0000 0.0000 -17.3663 13.3241 -47.4294 -7.7516 -15.9335 51.6628 -0.0959 -13.4513 10.5864 -0.6875 5.3010 -14.7691 5.9692 2.1264 31.3603 -0.4942 2.6940 14.8231 -4.7590 1.0755 0.1447 -10.6994 -9.1698 -8.5946 22.1866 -11.2045 -8.5965 8.0396 -5.6408 0.9771 0.0000 -0.0000 0.0000 -82.9282 -15.3896 61.2873 80.8776 -59.6832 -52.1082 -0.0000 -0.0000 30.6622 -0.8720 27.9875 -0.4092 -7.1250 0.0000 -0.0000 -32.9092 54.7452 -8.5699 0.0000 -0.0000 0.0000 -69.8257 65.3747 -132.2612 -13.6408 22.2189 -2.6908 0.0000 -0.0000 -8.0005 -19.1894 -3.9450 1.3716 7.1250 -0.0000 -0.0000 6.1171 -34.1076 1.6426
16.5413 13.6287 9.9773 56.5247 -82.6905 -68.6345 0.0000 0.0000 0.0000 3.3105 -17.6519 -42.2341 3.2854 11.1434 32.7649 1.2033 -1.3545 21.2569 0.0933 -1.9695 -5.4214 0.0000 0.0000 0.0000 -17.8675 13.6736 -47.8732 -7.7595 -15.9395 51.6916 -0.0530 -13.0590 9.8258 -0.6794 5.2703 -14.6811 6.4334 1.9690 31.3617 -0.5344 2.6461 14.6596 -5.0595 1.0799 -0.0119 -10.6859 -9.2450 -8.6858 22.2839 -11.2955 -8.6703 8.0575 -5.6880 0.9934 0.0000 -0.0000 0.0000 -82.8429 -15.1015 61.2906 81.4259 -59.7204 -52.5816 -0.0000 -0.0000 30.9720 -0.2350 28.8771 -0.1135 -7.1250 0.0000 -0.0000 -33.0043 55.6158 -9.3303 0.0000 -0.0000 0.0000 -70.1733 64.8592 -132.5789 -13.6356 22.2114 -2.6888 0.0000 -0.0000 -7.9268 -20.1880 -4.3091 1.5825 7.1250 -0.0000 -0.0000 5.3324 -34.5316 1.3752
16.5061 13.6433 9.9703 57.7757 -82.9246 -69.2170 0.0000 0.0000 0.0000 3.8790 -17.7747 -42.8298 3.3039 11.1715 32.8606 1.1367 -1.2876 20.6483 0.1479 -2.4783 -6.8294 0.0000 0.0000 0.0000 -18.2649 14.2392 -48.2155 -7.7526 -15.9343 51.6668 -0.0171 -12.6043 9.0682 -0.6108 5.0021 -13.9146 6.4400 1.9796 31.5399 -0.4571 2.6813 14.5531 -4.9962 1.0850 -0.2134 -10.9660 -9.3562 -8.8786 22.5049 -11.4067 -8.7524 8.1575 -5.7342 1.0567 0.0000 -0.0000 0.0000 -82.7787 -14.9094 61.2333 81.9686 -59.7549 -53.0504 -0.0000 -0.0000 30.8434 0.9348 28.1105 0.4405 -7.1250 0.0000 -0.0000 -31.3082 55.1952 -8.4434 0.0000 -0.0000 0.0000 -71.1315 64.5090 -133.3879 -13.7625 22.3942 -2.7370 0.0000 -0.0000 -7.7365 -20.4122 -4.8317 1.7953 7.1250 -0.0000 -0.0000 5.1960 -35.0954 1.2683
16.4632 13.6579 9.9543 60.9501 -82.9573 -71.9602 0.0000 0.0000 0.0000 4.1300 -17.7969 -43.0698 3.3376 11.2225 33.0339 1.1058 -1.1118 20.3012 0.2557 -3.2537 -8.9858 0.0000 0.0000 0.0000 -18.9135 15.0681 -48.1997 -7.7222 -15.9111 51.5558 0.0140 -11.9880 8.2126 -0.4088 4.1045 -11.3709 6.0160 2.1923 31.9645 -0.4320 2.8503 14.4781 -4.7933 1.1291 -0.5000 -10.7747 -9.3903 -8.8832 22.3776 -11.4342 -9.0232 8.0899 -5.7684 0.9611 0.0000 -0.0000 0.0000 -82.5549 -14.5858 61.3776 82.7677 -59.8014 -53.7408 -0.0000 -0.0000 30.5137 3.2268 31.1045 1.6683 -7.1250 0.0000 -0.0000 -31.5474 58.2099 -10.8947 0.0000 -0.0000 0.0000 -71.7483 64.2181 -134.0662 -13.9313 22.6365 -2.8016 0.0000 -0.0000 -7.3016 -20.0367 -4.8460 1.7647 7.1250 -0.0000 -0.0000 5.5077 -35.0936 1.3452
